<svg style="display: none;" aria-hidden="true" xmlns="http://www.w3.org/2000/svg" xmlns:xlink="http://www.w3.org/1999/xlink"><symbol viewBox="0 0 30 30" id="svg-facebook"><path d="M29 30a1 1 0 0 0 1-1V1a1 1 0 0 0-1-1H1a1 1 0 0 0-1 1v28a1 1 0 0 0 1 1h14.5V18h-4v-4.5h4V9c0-2.66 2.16-4.75 4.8-4.81a26.7 26.7 0 0 1 4.7.31v4.14l-2.55-.09A1.4 1.4 0 0 0 21 9.9v3.6h4.5L25 18h-4v12z"/></symbol><symbol viewBox="0 0 100 20" id="svg-logo"><path d="M0 0v20h3.2v-6l1-1.9L7.4 20h3.2L6 8.7 10.6 0H7.4L3.2 8.7V0H0zm16.7 0c-3.2 0-4.9 1.7-4.9 4.9V15c0 3.3 1.7 5 4.9 5s4.9-1.7 4.9-5V4.9c0-3.2-1.7-4.9-4.9-4.9zm6.7 0v20h2.9V5.5l4 14.5h3.4V0h-2.9v12L27.5 0h-4.1zm16.9 0c-3.1 0-4.7 1.7-4.7 5 0 5.5 6.3 6.3 6.3 10.3 0 .9-.3 1.9-1.6 1.9-2 0-1.8-1.5-1.8-3.3h-3c-.2 3.3.7 6.1 4.8 6.1 3.1 0 4.8-1.7 4.8-4.9 0-5.6-6.3-6.4-6.3-10.4 0-.9.3-1.9 1.5-1.9C42.1 2.8 42 4 42 5.5h3c.1-3.3-1-5.5-4.7-5.5zm5.9 0v2.8h3.4V20h3.2V2.8h3.4V0h-10zm11.4 0v20h3.2v-8.2c1.3 0 3.2-.2 3.2 2.2v4c0 .4.1 1.4.4 2h3.2c-.3-.6-.4-1.6-.4-2v-4c0-1-.2-3.1-2.1-3.8 1.7-1 2.1-1.8 2.1-4.2V4c0-2.2-1.6-4-4-4h-5.6zM69 0v15c0 3.3 1.7 5 4.9 5s4.9-1.7 4.9-5V0h-3.2v15.3c0 1.2-.5 1.9-1.7 1.9s-1.7-.7-1.7-1.9V0H69zm21 0v2.8h3.4V20h3.2V2.8h3.4V0H90zM61.46 2.79C62.93 2.77 64 2.81 64 5v2c0 2.2-1.5 2-3.2 2V2.8l.65-.01zM16.7 2.8c1.2 0 1.7.7 1.7 1.9v10.6c0 1.2-.5 1.9-1.7 1.9s-1.7-.7-1.7-1.9V4.7c0-1.2.5-1.9 1.7-1.9z"/><path fill="currentColor" d="M80.2 10l8.4-10v20z"/></symbol><symbol viewBox="0 0 30 30" id="svg-twitter"><path d="M30 5.58a12.06 12.06 0 0 1-3.54.97 6.2 6.2 0 0 0 2.7-3.44 12.01 12.01 0 0 1-3.91 1.5c-4.59-4.69-11.77-.43-10.48 5.71A17.39 17.39 0 0 1 2.1 3.78 6.3 6.3 0 0 0 4 12.12a6.13 6.13 0 0 1-2.78-.78 6.25 6.25 0 0 0 4.93 6.2 6.7 6.7 0 0 1-2.78.12c.78 2.48 3.04 4.27 5.74 4.33-2.89 2.28-6.15 2.9-9.12 2.59 13.11 7.95 27.5-2.06 26.91-15.78 1.2-.89 2.24-1.99 3.08-3.23z"/></symbol></svg>