<svg xmlns="http://www.w3.org/2000/svg" viewBox="0 0 75 75"><path fill="#007daf" d="M41.2 0A3.2 3.2 0 0 0 38 3.2V12h2V3.2c0-.68.52-1.2 1.2-1.2h5.6c.68 0 1.2.52 1.2 1.2V12h2V3.2A3.2 3.2 0 0 0 46.8 0zM25.5 24h6v2h-6zm0-4h6v2h-6zm-14-3v2h2v12.29l2 .34V19h2v-2z"/><path fill="#dfdfdf" d="M45 42h10v3.5H45zm-23-4c-3.5 0-8.3-.35-12-1.75v13c3.7 1.4 8.5 1.75 12 1.75z"/><path fill="#48555b" d="M38 18h21v2H38zm3 5h18v2H41zm0 5h18v2H41zm0 5h18v2H41zm0 5v11.5h18V38zm2 2h14v7.5H43zm.4 16.5c-1.31 0-2.4 1.09-2.4 2.4v1.7c0 1.31 1.09 2.4 2.4 2.4h15.7c1.31 0 2.4-1.09 2.4-2.4v-1.7c0-.19-.03-.37-.07-.54A3.5 3.5 0 0 0 64 55V15.5a3.5 3.5 0 0 0-3.5-3.5H38v2h22.5c.85 0 1.5.65 1.5 1.5V55c0 .85-.65 1.5-1.5 1.5zm0 2h15.7c.24 0 .4.16.4.4v1.7c0 .24-.16.4-.4.4H43.4c-.24 0-.4-.16-.4-.4v-1.7c0-.24.16-.4.4-.4zM12.5 6c-1.64 0-3 1.36-3 3v14.76C6.81 24.75 5 26.16 5 28v41c0 4 8.5 6 16.25 6 7.07 0 14.74-1.67 16.04-5H64.5a5.5 5.5 0 0 0 5.5-5.5v-53A5.5 5.5 0 0 0 64.5 6H50v2h14.5c1.96 0 3.5 1.54 3.5 3.5v53c0 1.96-1.54 3.5-3.5 3.5h-27V28c0-1.72-1.58-3.07-4-4.05V17c0-1.64-1.36-3-3-3h-4c-1.64 0-3 1.36-3 3v5.06a44.4 44.4 0 0 0-4-.02V9c0-1.64-1.36-3-3-3zM26 6v2h12V6zM12.5 8h4c.57 0 1 .43 1 1v3h-6V9c0-.57.43-1 1-1zm-1 6h6v17.84c-2.38-.2-4.4-.58-6-1.04zm15 2h4c.57 0 1 .43 1 1v13.64a29.4 29.4 0 0 1-6 1.15V17c0-.57.43-1 1-1zm-4.97 8.01l1.97.04v7.9a38.5 38.5 0 0 1-4 .02v-7.93c.69-.03 1.37-.04 2.03-.03zM9.5 25.91v4.18C7.87 29.39 7 28.61 7 28s.87-1.38 2.5-2.09zm24 .23c1.31.64 2 1.32 2 1.86s-.69 1.22-2 1.86zM7 31.02c5.8 3.98 22.8 3.98 28.5 0V69c0 1.5-5.2 4-14.25 4S7 70.5 7 69zm4 35.36v2.12a35.8 35.8 0 0 0 20.5 0v-2.12c-5.8 2.18-14.7 2.17-20.5 0zM31 38h2v23h-2z"/></svg>