<svg xmlns="http://www.w3.org/2000/svg" viewBox="0 0 75 75"><path fill="#48555b" d="M22 0c-1.64 0-3 1.36-3 3v10c0 1.64 1.36 3 3 3h5v3H15a5 5 0 00-4.14 2.21L5 30v7a5.5 5.5 0 005 5.47V70c0 1.13.39 2.16 1.03 3H6v2h63v-2h-5.03c.64-.84 1.03-1.87 1.03-3V42.47A5.5 5.5 0 0070 37v-7l-5.86-8.79A5 5 0 0060 19H48v-3h5c1.64 0 3-1.36 3-3V3c0-1.64-1.36-3-3-3zm0 2h31c.57 0 1 .43 1 1v10c0 .57-.43 1-1 1H22c-.57 0-1-.43-1-1V3c0-.57.43-1 1-1zm7 14h17v5h14c1 0 1.86.48 2.41 1.22L66.93 29H8.07l4.52-6.78C13.14 21.48 14 21 15 21h22v-2h-8zM7 31h7v6c0 1.96-1.54 3.5-3.5 3.5S7 38.96 7 37zm9 0h7v6c0 1.96-1.54 3.5-3.5 3.5S16 38.96 16 37zm9 0h7v6c0 1.96-1.54 3.5-3.5 3.5S25 38.96 25 37zm9 0h7v6c0 1.96-1.54 3.5-3.5 3.5S34 38.96 34 37zm9 0h7v6c0 1.96-1.54 3.5-3.5 3.5S43 38.96 43 37zm9 0h7v6c0 1.96-1.54 3.5-3.5 3.5S52 38.96 52 37zm9 0h7v6c0 1.96-1.54 3.5-3.5 3.5S61 38.96 61 37zm-46 9.15a5.5 5.5 0 009 0 5.5 5.5 0 009 0 5.5 5.5 0 009 0 5.5 5.5 0 009 0 5.5 5.5 0 009 0 5.5 5.5 0 003 2.13V68H33V52c0-1.64-1.36-3-3-3H20c-1.64 0-3 1.36-3 3v16h-5V42.28a5.5 5.5 0 003-2.13zM20 51h10c.57 0 1 .43 1 1v2H19v-2c0-.57.43-1 1-1zm-1 5h12v17H19zm-7 14h5v3h-2c-1.68 0-3-1.32-3-3zm21 0h30c0 1.68-1.32 3-3 3H33z"/><path fill="#007daf" d="M29 5v2h17V5H29zm3.5 4.5v2h10v-2h-10zM27 62v4h2v-4h-2z"/><path fill="#dfdfdf" d="M37 49h22v15H37z"/></svg>