<svg xmlns="http://www.w3.org/2000/svg" viewBox="0 0 75 75"><path fill="#48555b" d="M33.5 1.4L7 25c-1.4 1.3-.6 4 1.6 4H12v35h-2c-1.64 0-3 1.36-3 3v1H5c-1.64 0-3 1.36-3 3v4h71v-4c0-1.64-1.36-3-3-3h-2v-1c0-1.64-1.36-3-3-3h-2V29h3.4c2.2 0 3-2.7 1.6-4L41.5 1.4c-2.2-1.86-5.8-1.85-8 0zm6.65 1.5L66.6 26.5c.14.11.18.5-.2.5H17v2h4v35h-7V27H8.6c-.38 0-.34-.39-.2-.5L34.85 2.9c1.35-1.2 3.95-1.2 5.3 0zM11 9a5 5 0 00-5 5v4h2v-4c0-1.68 1.32-3 3-3h4V9zm49 0v2h4c1.68 0 3 1.32 3 3v4h2v-4a5 5 0 00-5-5zM23 29h29v35h-6v-1c0-1.64-1.36-3-3-3H32c-1.64 0-3 1.36-3 3v1h-6V34h26v-2H23zm31 0h7v35h-7zM6 34v25h2V34zm61 0v25h2V34zM32 62h11c.57 0 1 .43 1 1v1H31v-1c0-.57.43-1 1-1zm-22 4h55c.57 0 1 .43 1 1v1H9v-1c0-.57.43-1 1-1zm-5 4h65c.57 0 1 .43 1 1v2H4v-2c0-.57.43-1 1-1z"/><path fill="#007daf" d="M37.5 10a6 6 0 00-6 6 6 6 0 1012 0 6 6 0 00-6-6zm0 2a4 4 0 014 4 4 4 0 11-8 0 4 4 0 014-4z"/><path fill="#dfdfdf" d="M32 44h11v16H32z"/></svg>